PathFileType	4	(X/Y/Z)	RBDS022static.trc
DataRate	CameraRate	NumFrames	NumMarkers	Units	OrigDataRate	OrigDataStartFrame	OrigNumFrames
150.000000	150.000000	4	48	mm	150.000000	0	150
Frame#	Time	L.Ankle			L.Ankle.Medial			L.ASIS			L.GTR			L.Heel.Bottom			L.Heel.Lateral			L.Heel.Top			L.HF			L.Iliac.Crest			L.Knee			L.Knee.Medial			L.MT1			L.MT2			L.MT5			L.PSIS			L.Shank.Bottom.Lateral			L.Shank.Bottom.Medial			L.Shank.Top.Lateral			L.Shank.Top.Medial			L.Thigh.Bottom.Lateral			L.Thigh.Bottom.Medial			L.Thigh.Top.Lateral			L.Thigh.Top.Medial			L.TT			R.Ankle			R.Ankle.Medial			R.ASIS			R.GTR			R.Heel.Bottom			R.Heel.Lateral			R.Heel.Top			R.HF			R.Iliac.Crest			R.Knee			R.Knee.Medial			R.MT1			R.MT2			R.MT5			R.PSIS			R.Shank.Bottom.Lateral			R.Shank.Bottom.Medial			R.Shank.Top.Lateral			R.Shank.Top.Medial			R.Thigh.Bottom.Lateral			R.Thigh.Bottom.Medial			R.Thigh.Top.Lateral			R.Thigh.Top.Medial			R.TT			
		X1	Y1	Z1	X2	Y2	Z2	X3	Y3	Z3	X4	Y4	Z4	X5	Y5	Z5	X6	Y6	Z6	X7	Y7	Z7	X8	Y8	Z8	X9	Y9	Z9	X10	Y10	Z10	X11	Y11	Z11	X12	Y12	Z12	X13	Y13	Z13	X14	Y14	Z14	X15	Y15	Z15	X16	Y16	Z16	X17	Y17	Z17	X18	Y18	Z18	X19	Y19	Z19	X20	Y20	Z20	X21	Y21	Z21	X22	Y22	Z22	X23	Y23	Z23	X24	Y24	Z24	X25	Y25	Z25	X26	Y26	Z26	X27	Y27	Z27	X28	Y28	Z28	X29	Y29	Z29	X30	Y30	Z30	X31	Y31	Z31	X32	Y32	Z32	X33	Y33	Z33	X34	Y34	Z34	X35	Y35	Z35	X36	Y36	Z36	X37	Y37	Z37	X38	Y38	Z38	X39	Y39	Z39	X40	Y40	Z40	X41	Y41	Z41	X42	Y42	Z42	X43	Y43	Z43	X44	Y44	Z44	X45	Y45	Z45	X46	Y46	Z46	X47	Y47	Z47	X48	Y48	Z48	

1	0	707.454833984375	106.5085525512695	1036.199951171875	725.9126586914063	126.564453125	1120.861450195313	844.394775390625	1006.052551269531	1098.187255859375	764.572265625	903.2423095703125	1034.387573242188	636.0089721679688	38.46339797973633	1086.994384765625	666.4070434570313	60.84035110473633	1041.652221679688	643.766845703125	84.03632354736328	1088.229248046875	740.332275390625	471.6405334472656	1039.518432617188	758.22998046875	1077.001953125	1049.096557617188	746.6088256835938	540.4220581054688	1043.478515625	744.1388549804688	519.7618408203125	1168.254272460938	854.3455200195313	57.90628051757813	1123.215209960938	861.624267578125	68.01921844482422	1076.399536132813	821.2832641601563	47.03532791137695	1010.199279785156	670.7060546875	1030.1826171875	1171.7333984375	696.119140625	190.7124176025391	1029.988647460938	658.1878662109375	192.3232269287109	1070.164428710938	689.4937133789063	270.4043273925781	1020.873168945313	652.5913696289063	272.9685668945313	1060.0185546875	744.7640380859375	646.1015625	1030.886108398438	686.1694946289063	654.4684448242188	1074.078369140625	748.9944458007813	755.0487670898438	1018.179992675781	695.2267456054688	762.5400390625	1062.020263671875	790.7832641601563	446.8475646972656	1091.167114257813	700.9920043945313	108.4487228393555	1415.162353515625	725.033203125	128.5554504394531	1330.980102539063	836.290283203125	1006.56396484375	1336.456665039063	765.6708374023438	908.5198364257813	1393.10205078125	631.3043823242188	40.01606750488281	1367.359741210938	663.119384765625	60.54949188232422	1411.337646484375	638.9268798828125	83.48257446289063	1366.922973632813	750.3905029296875	473.795166015625	1400.210083007813	767.5806274414063	1074.31494140625	1376.673095703125	757.3878784179688	535.9114990234375	1395.528198242188	755.7029418945313	519.9192504882813	1271.437377929688	840.6865844726563	56.16716766357422	1319.99853515625	857.8614501953125	71.12066650390625	1373.977905273438	823.5856323242188	49.17575836181641	1435.549682617188	672.5128173828125	1030.755615234375	1256.938598632813	687.0921020507813	187.9213104248047	1416.461303710938	655.69091796875	195.1578369140625	1376.689819335938	693.7405395507813	272.2708435058594	1425.86376953125	657.8194580078125	275.6199340820313	1386.023071289063	757.0689697265625	636.3991088867188	1406.135864257813	697.2161254882813	641.0777587890625	1366.685424804688	760.075927734375	746.8104858398438	1413.223022460938	701.5396118164063	750.5155029296875	1377.723876953125	799.29638671875	449.2274780273438	1357.76611328125	
2	0.006666666666666667	707.46728515625	106.5044403076172	1036.201293945313	725.926025390625	126.5625152587891	1120.864501953125	844.3710327148438	1006.069396972656	1098.18505859375	764.5659790039063	903.2469482421875	1034.381591796875	636.0172119140625	38.46898651123047	1086.992553710938	666.4140014648438	60.83936309814453	1041.643310546875	643.7666015625	84.04098510742188	1088.223876953125	740.3418579101563	471.6426391601563	1039.517700195313	758.2034301757813	1076.992797851563	1049.119995117188	746.6154174804688	540.4315795898438	1043.47509765625	744.1430053710938	519.7599487304688	1168.259399414063	854.3470458984375	57.88547515869141	1123.210815429688	861.626953125	68.02011871337891	1076.432373046875	821.2789306640625	47.09039688110352	1010.212951660156	670.7086791992188	1030.174194335938	1171.739990234375	696.1320190429688	190.7046966552734	1029.994506835938	658.2018432617188	192.3177032470703	1070.162963867188	689.5155639648438	270.4049682617188	1020.880432128906	652.608642578125	272.972412109375	1060.031494140625	744.7452392578125	646.1101684570313	1030.877075195313	686.1778564453125	654.470458984375	1074.092529296875	748.9861450195313	755.0497436523438	1018.179260253906	695.2306518554688	762.5463256835938	1062.021484375	790.789306640625	446.8509216308594	1091.157592773438	701.0011596679688	108.4445953369141	1415.153686523438	725.0498657226563	128.73583984375	1330.66357421875	836.2947998046875	1006.566711425781	1336.450805664063	765.6748657226563	908.5150756835938	1393.108032226563	631.3037109375	40.02279281616211	1367.362426757813	663.129638671875	60.55560302734375	1411.348754882813	638.9302368164063	83.48974609375	1366.929077148438	750.39111328125	473.7924499511719	1400.20654296875	767.5726928710938	1074.319213867188	1376.664794921875	757.3839721679688	535.9071655273438	1395.535278320313	755.7084350585938	519.9235229492188	1271.433227539063	840.6857299804688	56.16439056396484	1319.997314453125	857.8512573242188	71.12339782714844	1373.981323242188	823.5822143554688	49.16704940795898	1435.555053710938	672.4876708984375	1030.760375976563	1256.935668945313	687.096923828125	187.9292449951172	1416.466186523438	655.6952514648438	195.1502838134766	1376.6943359375	693.6648559570313	272.2155456542969	1425.633911132813	657.82568359375	275.6182250976563	1386.019287109375	757.068115234375	636.398681640625	1406.132568359375	697.215087890625	641.076416015625	1366.681884765625	760.0792846679688	746.8097534179688	1413.21826171875	701.54248046875	750.5248413085938	1377.725219726563	799.3055419921875	449.2234497070313	1357.756469726563	
3	0.01333333333333333	707.4725952148438	106.5069580078125	1036.203247070313	725.9315795898438	126.5580291748047	1120.86474609375	844.3726806640625	1006.068298339844	1098.177368164063	764.5720825195313	903.2523803710938	1034.377197265625	636.0145263671875	38.46712875366211	1086.987548828125	666.4256591796875	60.83347320556641	1041.653076171875	643.77392578125	84.03569793701172	1088.223876953125	740.3306884765625	471.6534729003906	1039.518310546875	758.1680908203125	1076.98388671875	1049.116943359375	746.6124877929688	540.4354858398438	1043.478515625	744.1409912109375	519.7608642578125	1168.243896484375	854.3573608398438	57.88686752319336	1123.205322265625	861.6331176757813	67.999267578125	1076.396240234375	821.3010864257813	47.02897644042969	1010.205322265625	670.6961059570313	1030.186645507813	1171.733032226563	696.1367797851563	190.7121124267578	1029.992065429688	658.2158203125	192.3101959228516	1070.17333984375	689.5145263671875	270.4065246582031	1020.889221191406	652.6142578125	272.9764404296875	1060.035400390625	744.7401123046875	646.1229248046875	1030.879516601563	686.1681518554688	654.4813842773438	1074.101928710938	748.9900512695313	755.059814453125	1018.188171386719	695.2368774414063	762.5505981445313	1062.029418945313	790.799072265625	446.8800048828125	1091.164794921875	701.0056762695313	108.4542465209961	1415.15087890625	725.0599975585938	128.7405548095703	1330.672241210938	836.2883911132813	1006.573364257813	1336.457397460938	765.67333984375	908.5137939453125	1393.1162109375	631.3014526367188	40.01940155029297	1367.356811523438	663.124755859375	60.54943466186523	1411.344116210938	638.93017578125	83.47949981689453	1366.922607421875	750.3976440429688	473.7928771972656	1400.204833984375	767.5629272460938	1074.313232421875	1376.672241210938	757.3930053710938	535.9150390625	1395.52099609375	755.7011108398438	519.9351196289063	1271.425415039063	840.6925048828125	56.16529083251953	1320.002563476563	857.8564453125	71.12441253662109	1373.984252929688	823.5885009765625	49.16829299926758	1435.556030273438	672.4844360351563	1030.761474609375	1256.947998046875	687.1054077148438	187.9291839599609	1416.468017578125	655.7015380859375	195.1646881103516	1376.702880859375	693.7383422851563	272.2760620117188	1425.864501953125	657.82958984375	275.6193542480469	1386.021606445313	757.0709838867188	636.3955078125	1406.129760742188	697.2127075195313	641.0830688476563	1366.687866210938	760.0859985351563	746.8103637695313	1413.219116210938	701.5569458007813	750.5182495117188	1377.720092773438	799.318359375	449.2300415039063	1357.770629882813	
4	0.02	707.4696044921875	106.505500793457	1036.207397460938	725.9314575195313	126.5520553588867	1120.872680664063	844.3851318359375	1006.072326660156	1098.175537109375	764.5761108398438	903.2542724609375	1034.381958007813	636.030517578125	38.47364044189453	1087.002197265625	666.42724609375	60.84088897705078	1041.652465820313	643.7764282226563	84.03662872314453	1088.229614257813	740.321533203125	471.6540222167969	1039.527954101563	758.1497192382813	1076.993896484375	1049.13525390625	746.5858154296875	540.4400024414063	1043.48974609375	744.1250610351563	519.7723999023438	1168.259033203125	854.3656616210938	57.87922286987305	1123.207153320313	861.6482543945313	68.01393127441406	1076.438232421875	821.301025390625	47.03192138671875	1010.209411621094	670.68896484375	1030.19140625	1171.7392578125	696.1380004882813	190.7066192626953	1030.008666992188	658.2238159179688	192.3216857910156	1070.178833007813	689.5188598632813	270.4102783203125	1020.888732910156	652.614501953125	272.9745788574219	1060.05517578125	744.7305297851563	646.1201171875	1030.892456054688	686.1641845703125	654.4884643554688	1074.107055664063	748.9871826171875	755.06201171875	1018.199890136719	695.2293090820313	762.5654907226563	1062.036987304688	790.7732543945313	446.8854675292969	1091.169799804688	701.0064086914063	108.4439468383789	1415.15771484375	725.03271484375	128.5672607421875	1330.99609375	836.2910766601563	1006.575317382813	1336.457275390625	765.6749267578125	908.5152587890625	1393.114379882813	631.3134765625	40.02124404907227	1367.370727539063	663.1263427734375	60.5533447265625	1411.345092773438	638.9290161132813	83.48307800292969	1366.93017578125	750.4053344726563	473.805419921875	1400.213623046875	767.5398559570313	1074.301635742188	1376.685302734375	757.3862915039063	535.9177856445313	1395.533203125	755.6947631835938	519.9400634765625	1271.4345703125	840.6991577148438	56.16382598876953	1319.993530273438	857.869873046875	71.12039947509766	1373.991455078125	823.5974731445313	49.16586685180664	1435.560424804688	672.491943359375	1030.766967773438	1256.939697265625	687.1093139648438	187.9269714355469	1416.46923828125	655.7055053710938	195.1550140380859	1376.702392578125	693.7534790039063	272.2679138183594	1425.8671875	657.8406982421875	275.62353515625	1386.0185546875	757.0792236328125	636.3943481445313	1406.131958007813	697.2198486328125	641.0797119140625	1366.694580078125	760.0842895507813	746.8117065429688	1413.218017578125	701.5537109375	750.52001953125	1377.718872070313	799.320068359375	449.2292175292969	1357.7734375	
